<svg width="32" height="32" viewBox="0 0 32 32" fill="none" xmlns="http://www.w3.org/2000/svg">
<rect width="32" height="32" rx="6" fill="#040404"/>
<path d="M10.517 25V7.54545H17.4034C18.7273 7.54545 19.8551 7.7983 20.7869 8.30398C21.7188 8.80398 22.429 9.5 22.9176 10.392C23.4119 11.2784 23.6591 12.3011 23.6591 13.4602C23.6591 14.6193 23.4091 15.642 22.9091 16.5284C22.4091 17.4148 21.6847 18.1051 20.7358 18.5994C19.7926 19.0937 18.6506 19.3409 17.3097 19.3409H12.9205V16.3835H16.7131C17.4233 16.3835 18.0085 16.2614 18.4688 16.017C18.9347 15.767 19.2813 15.4233 19.5085 14.9858C19.7415 14.5426 19.858 14.0341 19.858 13.4602C19.858 12.8807 19.7415 12.375 19.5085 11.9432C19.2813 11.5057 18.9347 11.1676 18.4688 10.929C18.0028 10.6847 17.4119 10.5625 16.696 10.5625H14.2074V25H10.517Z" fill="#3182CE"/>
</svg>
